<mxfile host="app.diagrams.net" modified="2023-11-21T22:04:16.795Z" agent="Mozilla/5.0 (Windows NT 10.0; Win64; x64) AppleWebKit/537.36 (KHTML, like Gecko) Chrome/119.0.0.0 Safari/537.36" etag="ekrzBbzK3G4X68D76C0_" version="22.1.3" type="github">
  <diagram id="C5RBs43oDa-KdzZeNtuy" name="Page-1">
    <mxGraphModel dx="-150" dy="1564" grid="1" gridSize="10" guides="1" tooltips="1" connect="1" arrows="1" fold="1" page="1" pageScale="1" pageWidth="827" pageHeight="1169" math="0" shadow="0">
      <root>
        <mxCell id="WIyWlLk6GJQsqaUBKTNV-0" />
        <mxCell id="WIyWlLk6GJQsqaUBKTNV-1" parent="WIyWlLk6GJQsqaUBKTNV-0" />
        <mxCell id="2LHrE22rl46TA7Fi1NJV-0" value="Joueurs" style="swimlane;fontStyle=0;align=center;verticalAlign=top;childLayout=stackLayout;horizontal=1;startSize=26;horizontalStack=0;resizeParent=1;resizeLast=0;collapsible=1;marginBottom=0;rounded=0;shadow=0;strokeWidth=1;" vertex="1" parent="WIyWlLk6GJQsqaUBKTNV-1">
          <mxGeometry x="897" y="50" width="140" height="160" as="geometry">
            <mxRectangle x="550" y="140" width="160" height="26" as="alternateBounds" />
          </mxGeometry>
        </mxCell>
        <mxCell id="2LHrE22rl46TA7Fi1NJV-1" value="Id_joueur" style="text;align=left;verticalAlign=top;spacingLeft=4;spacingRight=4;overflow=hidden;rotatable=0;points=[[0,0.5],[1,0.5]];portConstraint=eastwest;" vertex="1" parent="2LHrE22rl46TA7Fi1NJV-0">
          <mxGeometry y="26" width="140" height="26" as="geometry" />
        </mxCell>
        <mxCell id="2LHrE22rl46TA7Fi1NJV-34" value="Pseudo" style="text;align=left;verticalAlign=top;spacingLeft=4;spacingRight=4;overflow=hidden;rotatable=0;points=[[0,0.5],[1,0.5]];portConstraint=eastwest;" vertex="1" parent="2LHrE22rl46TA7Fi1NJV-0">
          <mxGeometry y="52" width="140" height="26" as="geometry" />
        </mxCell>
        <mxCell id="2LHrE22rl46TA7Fi1NJV-9" value="Cartes" style="swimlane;fontStyle=0;align=center;verticalAlign=top;childLayout=stackLayout;horizontal=1;startSize=26;horizontalStack=0;resizeParent=1;resizeLast=0;collapsible=1;marginBottom=0;rounded=0;shadow=0;strokeWidth=1;" vertex="1" parent="WIyWlLk6GJQsqaUBKTNV-1">
          <mxGeometry x="897" y="310" width="140" height="130" as="geometry">
            <mxRectangle x="550" y="140" width="160" height="26" as="alternateBounds" />
          </mxGeometry>
        </mxCell>
        <mxCell id="2LHrE22rl46TA7Fi1NJV-10" value="Valeur" style="text;align=left;verticalAlign=top;spacingLeft=4;spacingRight=4;overflow=hidden;rotatable=0;points=[[0,0.5],[1,0.5]];portConstraint=eastwest;" vertex="1" parent="2LHrE22rl46TA7Fi1NJV-9">
          <mxGeometry y="26" width="140" height="26" as="geometry" />
        </mxCell>
        <mxCell id="2LHrE22rl46TA7Fi1NJV-17" value="" style="endArrow=none;html=1;rounded=0;" edge="1" parent="WIyWlLk6GJQsqaUBKTNV-1">
          <mxGeometry width="50" height="50" relative="1" as="geometry">
            <mxPoint x="949.204081632653" y="310" as="sourcePoint" />
            <mxPoint x="947.9795918367347" y="210" as="targetPoint" />
          </mxGeometry>
        </mxCell>
        <mxCell id="2LHrE22rl46TA7Fi1NJV-18" value="Possède" style="edgeLabel;html=1;align=center;verticalAlign=middle;resizable=0;points=[];" vertex="1" connectable="0" parent="2LHrE22rl46TA7Fi1NJV-17">
          <mxGeometry x="0.1124" y="2" relative="1" as="geometry">
            <mxPoint x="-24" y="7" as="offset" />
          </mxGeometry>
        </mxCell>
        <mxCell id="2LHrE22rl46TA7Fi1NJV-24" value="*" style="edgeLabel;html=1;align=center;verticalAlign=middle;resizable=0;points=[];" vertex="1" connectable="0" parent="2LHrE22rl46TA7Fi1NJV-17">
          <mxGeometry x="0.8878" y="1" relative="1" as="geometry">
            <mxPoint x="-6" y="4" as="offset" />
          </mxGeometry>
        </mxCell>
        <mxCell id="2LHrE22rl46TA7Fi1NJV-25" value="*" style="edgeLabel;html=1;align=center;verticalAlign=middle;resizable=0;points=[];" vertex="1" connectable="0" parent="2LHrE22rl46TA7Fi1NJV-17">
          <mxGeometry x="-0.8097" y="-3" relative="1" as="geometry">
            <mxPoint x="-9" y="2" as="offset" />
          </mxGeometry>
        </mxCell>
        <mxCell id="2LHrE22rl46TA7Fi1NJV-19" value="" style="endArrow=none;html=1;rounded=0;" edge="1" parent="WIyWlLk6GJQsqaUBKTNV-1">
          <mxGeometry width="50" height="50" relative="1" as="geometry">
            <mxPoint x="984.9999999999998" y="310" as="sourcePoint" />
            <mxPoint x="984.9999999999998" y="210" as="targetPoint" />
          </mxGeometry>
        </mxCell>
        <mxCell id="2LHrE22rl46TA7Fi1NJV-20" value="Mis de coté" style="edgeLabel;html=1;align=center;verticalAlign=middle;resizable=0;points=[];" vertex="1" connectable="0" parent="2LHrE22rl46TA7Fi1NJV-19">
          <mxGeometry x="0.1124" y="2" relative="1" as="geometry">
            <mxPoint x="34" y="8" as="offset" />
          </mxGeometry>
        </mxCell>
        <mxCell id="2LHrE22rl46TA7Fi1NJV-21" value="0..1" style="edgeLabel;html=1;align=center;verticalAlign=middle;resizable=0;points=[];" vertex="1" connectable="0" parent="2LHrE22rl46TA7Fi1NJV-19">
          <mxGeometry x="0.7497" relative="1" as="geometry">
            <mxPoint x="13" y="77" as="offset" />
          </mxGeometry>
        </mxCell>
        <mxCell id="2LHrE22rl46TA7Fi1NJV-23" value="*" style="edgeLabel;html=1;align=center;verticalAlign=middle;resizable=0;points=[];" vertex="1" connectable="0" parent="2LHrE22rl46TA7Fi1NJV-19">
          <mxGeometry x="0.7772" relative="1" as="geometry">
            <mxPoint x="7" y="-1" as="offset" />
          </mxGeometry>
        </mxCell>
        <mxCell id="2LHrE22rl46TA7Fi1NJV-26" value="Jetons" style="swimlane;fontStyle=0;align=center;verticalAlign=top;childLayout=stackLayout;horizontal=1;startSize=26;horizontalStack=0;resizeParent=1;resizeLast=0;collapsible=1;marginBottom=0;rounded=0;shadow=0;strokeWidth=1;" vertex="1" parent="WIyWlLk6GJQsqaUBKTNV-1">
          <mxGeometry x="1210" y="75" width="140" height="110" as="geometry">
            <mxRectangle x="550" y="140" width="160" height="26" as="alternateBounds" />
          </mxGeometry>
        </mxCell>
        <mxCell id="2LHrE22rl46TA7Fi1NJV-27" value="id_jeton" style="text;align=left;verticalAlign=top;spacingLeft=4;spacingRight=4;overflow=hidden;rotatable=0;points=[[0,0.5],[1,0.5]];portConstraint=eastwest;" vertex="1" parent="2LHrE22rl46TA7Fi1NJV-26">
          <mxGeometry y="26" width="140" height="26" as="geometry" />
        </mxCell>
        <mxCell id="2LHrE22rl46TA7Fi1NJV-28" value="couleur" style="text;align=left;verticalAlign=top;spacingLeft=4;spacingRight=4;overflow=hidden;rotatable=0;points=[[0,0.5],[1,0.5]];portConstraint=eastwest;rounded=0;shadow=0;html=0;" vertex="1" parent="2LHrE22rl46TA7Fi1NJV-26">
          <mxGeometry y="52" width="140" height="26" as="geometry" />
        </mxCell>
        <mxCell id="2LHrE22rl46TA7Fi1NJV-30" value="" style="endArrow=none;html=1;rounded=0;" edge="1" parent="WIyWlLk6GJQsqaUBKTNV-1" source="2LHrE22rl46TA7Fi1NJV-0" target="2LHrE22rl46TA7Fi1NJV-26">
          <mxGeometry width="50" height="50" relative="1" as="geometry">
            <mxPoint x="994.9999999999998" y="320" as="sourcePoint" />
            <mxPoint x="994.9999999999998" y="220" as="targetPoint" />
          </mxGeometry>
        </mxCell>
        <mxCell id="2LHrE22rl46TA7Fi1NJV-31" value="Mis de coté" style="edgeLabel;html=1;align=center;verticalAlign=middle;resizable=0;points=[];" vertex="1" connectable="0" parent="2LHrE22rl46TA7Fi1NJV-30">
          <mxGeometry x="0.1124" y="2" relative="1" as="geometry">
            <mxPoint x="-3" y="-7" as="offset" />
          </mxGeometry>
        </mxCell>
        <mxCell id="2LHrE22rl46TA7Fi1NJV-32" value="0..1" style="edgeLabel;html=1;align=center;verticalAlign=middle;resizable=0;points=[];" vertex="1" connectable="0" parent="2LHrE22rl46TA7Fi1NJV-30">
          <mxGeometry x="0.7497" relative="1" as="geometry">
            <mxPoint x="-137" y="-9" as="offset" />
          </mxGeometry>
        </mxCell>
        <mxCell id="2LHrE22rl46TA7Fi1NJV-33" value="*" style="edgeLabel;html=1;align=center;verticalAlign=middle;resizable=0;points=[];" vertex="1" connectable="0" parent="2LHrE22rl46TA7Fi1NJV-30">
          <mxGeometry x="0.7772" relative="1" as="geometry">
            <mxPoint x="12" y="-8" as="offset" />
          </mxGeometry>
        </mxCell>
        <mxCell id="2LHrE22rl46TA7Fi1NJV-39" value="" style="endArrow=none;html=1;rounded=0;exitX=0.75;exitY=1;exitDx=0;exitDy=0;entryX=0.75;entryY=0;entryDx=0;entryDy=0;" edge="1" parent="WIyWlLk6GJQsqaUBKTNV-1" source="2LHrE22rl46TA7Fi1NJV-43" target="2LHrE22rl46TA7Fi1NJV-0">
          <mxGeometry width="50" height="50" relative="1" as="geometry">
            <mxPoint x="1130" y="-30" as="sourcePoint" />
            <mxPoint x="1303" y="-30" as="targetPoint" />
          </mxGeometry>
        </mxCell>
        <mxCell id="2LHrE22rl46TA7Fi1NJV-40" value="est joueur" style="edgeLabel;html=1;align=center;verticalAlign=middle;resizable=0;points=[];" vertex="1" connectable="0" parent="2LHrE22rl46TA7Fi1NJV-39">
          <mxGeometry x="0.1124" y="2" relative="1" as="geometry">
            <mxPoint x="28" y="-6" as="offset" />
          </mxGeometry>
        </mxCell>
        <mxCell id="2LHrE22rl46TA7Fi1NJV-41" value="*" style="edgeLabel;html=1;align=center;verticalAlign=middle;resizable=0;points=[];" vertex="1" connectable="0" parent="2LHrE22rl46TA7Fi1NJV-39">
          <mxGeometry x="0.7497" relative="1" as="geometry">
            <mxPoint x="6" y="-74" as="offset" />
          </mxGeometry>
        </mxCell>
        <mxCell id="2LHrE22rl46TA7Fi1NJV-42" value="2..4" style="edgeLabel;html=1;align=center;verticalAlign=middle;resizable=0;points=[];" vertex="1" connectable="0" parent="2LHrE22rl46TA7Fi1NJV-39">
          <mxGeometry x="0.7772" relative="1" as="geometry">
            <mxPoint x="11" y="2" as="offset" />
          </mxGeometry>
        </mxCell>
        <mxCell id="2LHrE22rl46TA7Fi1NJV-43" value="Partie" style="swimlane;fontStyle=0;align=center;verticalAlign=top;childLayout=stackLayout;horizontal=1;startSize=26;horizontalStack=0;resizeParent=1;resizeLast=0;collapsible=1;marginBottom=0;rounded=0;shadow=0;strokeWidth=1;" vertex="1" parent="WIyWlLk6GJQsqaUBKTNV-1">
          <mxGeometry x="897" y="-154" width="140" height="110" as="geometry">
            <mxRectangle x="550" y="140" width="160" height="26" as="alternateBounds" />
          </mxGeometry>
        </mxCell>
        <mxCell id="2LHrE22rl46TA7Fi1NJV-44" value="id_partie" style="text;align=left;verticalAlign=top;spacingLeft=4;spacingRight=4;overflow=hidden;rotatable=0;points=[[0,0.5],[1,0.5]];portConstraint=eastwest;" vertex="1" parent="2LHrE22rl46TA7Fi1NJV-43">
          <mxGeometry y="26" width="140" height="26" as="geometry" />
        </mxCell>
        <mxCell id="2LHrE22rl46TA7Fi1NJV-45" value="nb_joueurs" style="text;align=left;verticalAlign=top;spacingLeft=4;spacingRight=4;overflow=hidden;rotatable=0;points=[[0,0.5],[1,0.5]];portConstraint=eastwest;rounded=0;shadow=0;html=0;" vertex="1" parent="2LHrE22rl46TA7Fi1NJV-43">
          <mxGeometry y="52" width="140" height="26" as="geometry" />
        </mxCell>
        <mxCell id="2LHrE22rl46TA7Fi1NJV-46" value="" style="endArrow=none;html=1;rounded=0;exitX=0.25;exitY=1;exitDx=0;exitDy=0;entryX=0.25;entryY=0;entryDx=0;entryDy=0;" edge="1" parent="WIyWlLk6GJQsqaUBKTNV-1" source="2LHrE22rl46TA7Fi1NJV-43" target="2LHrE22rl46TA7Fi1NJV-0">
          <mxGeometry width="50" height="50" relative="1" as="geometry">
            <mxPoint x="820" y="-20" as="sourcePoint" />
            <mxPoint x="820" y="74" as="targetPoint" />
          </mxGeometry>
        </mxCell>
        <mxCell id="2LHrE22rl46TA7Fi1NJV-47" value="est vainqueur" style="edgeLabel;html=1;align=center;verticalAlign=middle;resizable=0;points=[];" vertex="1" connectable="0" parent="2LHrE22rl46TA7Fi1NJV-46">
          <mxGeometry x="0.1124" y="2" relative="1" as="geometry">
            <mxPoint x="-38" y="-4" as="offset" />
          </mxGeometry>
        </mxCell>
        <mxCell id="2LHrE22rl46TA7Fi1NJV-48" value="0..1" style="edgeLabel;html=1;align=center;verticalAlign=middle;resizable=0;points=[];" vertex="1" connectable="0" parent="2LHrE22rl46TA7Fi1NJV-46">
          <mxGeometry x="0.7497" relative="1" as="geometry">
            <mxPoint x="-14" y="-74" as="offset" />
          </mxGeometry>
        </mxCell>
        <mxCell id="2LHrE22rl46TA7Fi1NJV-49" value="*" style="edgeLabel;html=1;align=center;verticalAlign=middle;resizable=0;points=[];" vertex="1" connectable="0" parent="2LHrE22rl46TA7Fi1NJV-46">
          <mxGeometry x="0.7772" relative="1" as="geometry">
            <mxPoint x="-5" y="2" as="offset" />
          </mxGeometry>
        </mxCell>
      </root>
    </mxGraphModel>
  </diagram>
</mxfile>
